<svg xmlns="http://www.w3.org/2000/svg" width="491" height="385" viewBox="2.0793182849884033 128.9178466796875 1020.9461944103241 800.5382690429688" style="">
<g>
<path d="M 397.00 919.62 C400.48,920.60 417.92,920.85 474.00,920.69 L 546.50 920.50 L 554.61 917.61 L 562.73 914.72 L 568.42 917.50 C576.26,921.34 583.07,921.30 590.74,917.38 C597.75,913.80 601.42,908.81 603.59,899.94 L 605.19 893.38 L 602.28 884.94 C599.52,876.92 599.09,876.30 593.72,872.58 C584.54,866.23 574.29,866.25 564.83,872.62 C561.19,875.07 558.78,876.02 557.03,875.72 C554.81,875.33 511.66,862.76 508.17,861.49 C507.95,861.41 507.72,861.43 507.59,861.32 C506.83,860.71 509.48,855.85 538.56,802.67 C540.64,798.87 542.86,794.82 545.22,790.50 C570.28,744.65 574.38,737.18 578.95,729.00 C581.56,724.33 588.05,712.55 593.38,702.84 L 603.06 685.18 L 622.72 675.56 C633.53,670.26 642.86,666.11 643.45,666.34 C644.03,666.57 648.51,674.12 653.40,683.13 C663.70,702.12 683.46,738.50 695.97,761.50 C700.76,770.30 721.72,808.93 742.56,847.34 C772.45,902.44 781.02,917.48 783.17,918.59 C785.42,919.75 794.99,920.00 837.02,920.00 C868.45,920.00 888.84,919.62 889.96,919.02 C892.51,917.66 893.98,912.84 893.07,908.84 C892.65,907.00 881.05,885.03 867.29,860.00 C853.54,834.97 836.31,803.47 829.01,790.00 C821.71,776.53 811.35,757.40 805.99,747.50 C800.63,737.60 794.67,726.58 792.76,723.00 C790.84,719.42 785.01,708.62 779.80,699.00 C774.59,689.38 768.16,677.45 765.51,672.50 C762.87,667.55 760.39,663.05 760.00,662.50 C759.61,661.95 757.13,657.45 754.48,652.50 C751.84,647.55 746.37,637.47 742.34,630.11 C738.30,622.74 735.00,616.59 735.00,616.44 C735.00,616.30 740.51,612.89 747.25,608.88 C831.97,558.44 896.64,510.42 945.03,462.03 C974.74,432.33 991.16,410.93 1003.01,386.50 C1011.65,368.68 1013.41,361.56 1013.39,344.50 C1013.38,331.81 1013.14,329.88 1010.78,323.88 C1007.32,315.04 1004.34,310.61 997.35,303.85 C983.88,290.83 966.64,283.65 937.50,278.90 C916.78,275.53 878.01,275.12 849.79,277.97 C837.86,279.18 827.38,280.01 826.52,279.83 C825.30,279.57 826.34,276.99 831.30,268.00 C834.79,261.67 843.41,245.93 850.45,233.00 C857.50,220.07 865.40,205.68 868.00,201.00 C888.92,163.48 895.00,151.31 895.00,147.02 C895.00,146.51 895.01,146.04 895.03,145.59 C895.07,144.17 895.10,143.05 894.65,142.17 C893.03,138.97 885.08,138.98 848.06,139.00 C844.89,139.00 841.51,139.00 837.90,139.00 L 784.11 139.00 L 781.57 141.25 C780.18,142.49 772.66,155.88 764.87,171.00 C750.82,198.27 692.91,306.16 691.40,307.88 C691.22,308.09 685.09,310.00 677.78,312.11 C670.48,314.23 659.88,317.40 654.23,319.16 L 643.96 322.35 L 640.73 319.29 C636.53,315.33 634.52,314.35 628.71,313.48 C624.30,312.82 623.59,312.30 620.00,307.13 C617.85,304.03 612.23,296.33 607.52,290.00 C588.14,263.97 586.60,261.24 587.67,254.67 C589.09,245.87 582.00,233.68 573.17,229.76 C564.70,226.00 552.55,227.70 546.07,233.55 L 542.26 237.00 L 471.78 237.00 C402.21,237.00 401.29,236.97 399.47,234.97 C393.74,228.63 384.14,226.08 374.93,228.44 C366.97,230.48 361.80,234.61 358.50,241.58 C356.07,246.72 355.40,247.33 348.09,250.90 C339.35,255.17 335.56,257.64 319.00,269.86 C307.61,278.26 302.68,281.86 289.37,291.45 C285.59,294.17 278.23,299.54 273.00,303.38 C254.54,316.94 249.33,320.75 232.37,333.02 C220.37,341.71 214.46,346.65 212.64,349.53 C210.44,353.01 209.26,353.83 205.03,354.80 C195.44,357.02 188.94,363.02 185.97,372.41 C184.35,377.55 185.33,387.77 187.94,392.89 C189.84,396.60 189.87,397.18 188.50,401.68 C183.89,416.74 176.48,441.32 174.99,446.50 C174.04,449.80 170.24,462.17 166.54,474.00 C162.84,485.83 158.04,501.35 155.87,508.50 C153.70,515.65 150.72,525.33 149.24,530.00 C147.76,534.67 146.32,539.52 146.03,540.77 C145.74,542.02 143.26,544.73 140.53,546.79 C137.80,548.85 134.21,552.73 132.55,555.41 C130.00,559.53 129.51,561.41 129.33,567.66 C129.19,572.52 129.67,576.56 130.76,579.49 C131.66,581.93 132.20,584.09 131.95,584.30 C102.18,608.44 63.85,645.22 48.36,664.50 C14.40,706.78 2.32,740.85 11.11,769.57 C17.64,790.91 40.56,807.38 73.50,814.42 C93.97,818.80 101.95,819.50 131.50,819.50 C152.98,819.50 164.65,819.03 176.50,817.68 C195.50,815.53 218.45,812.37 225.69,810.92 L 230.89 809.88 L 239.19 816.25 C251.04,825.32 276.53,844.64 305.50,866.49 C338.25,891.19 339.00,891.81 339.00,894.44 C339.00,899.84 342.27,907.37 346.65,912.05 C354.41,920.35 365.20,922.27 376.25,917.31 L 382.24 914.62 L 387.37 916.48 C390.19,917.51 394.52,918.92 397.00,919.62 ZM 467.58 705.83 C463.14,707.47 458.81,709.09 457.96,709.43 C456.98,709.83 453.86,708.09 449.46,704.71 C442.77,699.58 424.95,685.83 414.50,677.74 C411.75,675.62 405.45,670.80 400.50,667.04 C395.55,663.28 385.88,655.88 379.00,650.59 C372.12,645.30 362.84,638.16 358.36,634.74 C350.38,628.63 350.21,628.40 349.62,623.40 C349.29,620.59 347.91,615.78 346.56,612.72 L 344.10 607.16 L 346.13 600.33 C347.24,596.57 348.76,591.47 349.49,589.00 C352.09,580.23 368.03,528.15 375.51,504.00 C379.69,490.52 383.78,477.25 384.62,474.50 C386.04,469.83 386.53,469.32 392.08,466.71 C396.27,464.74 398.81,462.74 400.65,459.95 L 403.28 455.99 L 466.22 456.24 L 529.17 456.50 L 533.19 464.00 C535.40,468.12 544.36,484.61 553.10,500.64 C561.85,516.66 569.00,530.02 569.00,530.32 C569.00,530.62 564.89,538.43 559.87,547.68 C554.85,556.93 546.71,571.92 541.79,581.00 C536.87,590.08 519.97,621.20 504.25,650.18 L 475.67 702.85 ZM 743.50 569.49 C726.69,580.17 718.08,584.80 717.18,583.66 C716.67,583.02 711.87,574.40 706.51,564.50 C701.15,554.60 694.98,543.20 692.79,539.17 C689.07,532.30 688.90,531.64 690.13,528.67 C692.97,521.79 719.23,472.66 752.50,412.00 C758.69,400.73 769.15,381.60 775.74,369.50 C782.34,357.40 790.50,342.49 793.87,336.37 L 800.01 325.25 L 813.25 323.89 C832.16,321.95 866.53,322.21 881.40,324.40 C910.13,328.63 928.04,337.58 936.16,351.78 C939.07,356.86 939.47,358.52 939.84,366.78 C940.28,377.05 939.43,381.26 934.48,393.11 C914.76,440.35 844.06,505.65 743.50,569.49 ZM 182.65 546.26 C178.88,548.95 175.25,551.35 174.58,551.61 C173.20,552.14 170.00,548.97 170.00,547.07 C170.00,546.37 174.07,532.68 179.05,516.65 C187.59,489.18 193.05,471.33 195.01,464.50 C195.48,462.85 197.68,455.65 199.90,448.50 C202.12,441.35 205.79,429.42 208.07,422.00 C210.35,414.58 212.73,408.01 213.36,407.41 C213.99,406.81 216.65,405.53 219.27,404.57 C225.13,402.42 230.31,397.14 233.08,390.50 C234.79,386.39 235.91,385.17 239.33,383.66 C260.51,374.34 299.43,358.00 300.46,358.00 C301.17,358.00 302.34,358.71 303.06,359.57 C305.13,362.07 311.59,364.98 316.58,365.67 C321.64,366.36 321.54,366.24 331.03,382.50 C333.60,386.90 340.72,398.95 346.85,409.28 C352.98,419.61 357.98,429.06 357.96,430.28 C357.93,431.50 357.34,434.65 356.65,437.28 L 355.39 442.05 L 339.45 450.62 C320.05,461.04 296.45,474.10 289.00,478.54 C260.56,495.45 240.86,507.41 232.50,512.83 C218.16,522.12 190.67,540.56 182.65,546.26 ZM 248.50 767.06 C239.99,768.33 238.87,768.12 235.47,764.62 C233.80,762.91 231.68,761.05 230.76,760.50 C229.26,759.61 229.00,756.01 228.42,728.00 L 227.77 696.50 L 232.84 691.30 C236.59,687.46 238.33,684.67 239.50,680.66 L 241.08 675.23 L 253.79 669.73 C291.17,653.57 306.92,647.00 308.26,647.00 C309.08,647.00 311.92,647.96 314.57,649.14 C318.78,651.00 320.54,651.19 328.24,650.64 L 337.08 650.02 L 343.29 654.84 C346.71,657.49 351.98,661.55 355.00,663.88 C358.02,666.20 366.35,672.59 373.50,678.08 C380.65,683.58 395.46,694.92 406.42,703.30 C417.38,711.67 426.50,719.00 426.69,719.58 C426.99,720.47 417.57,723.81 384.14,734.64 C364.81,740.90 315.52,753.95 292.00,759.02 C281.42,761.30 257.73,765.68 248.50,767.06 ZM 433.38 404.06 C422.86,408.90 410.26,414.85 405.38,417.29 L 396.50 421.73 L 392.88 419.84 C390.89,418.79 387.30,417.61 384.90,417.20 C381.04,416.54 380.09,415.81 376.82,410.97 C374.78,407.96 373.08,405.15 373.05,404.73 C373.02,404.30 371.93,402.28 370.63,400.23 C369.32,398.18 362.31,386.50 355.05,374.27 L 341.86 352.05 L 343.49 345.27 C345.05,338.80 345.04,338.22 343.15,332.20 L 341.18 325.89 L 352.00 311.20 C375.22,279.67 375.84,278.92 378.45,279.58 C379.76,279.91 383.41,279.64 386.55,278.99 C393.09,277.63 399.80,272.28 403.12,265.76 L 405.08 261.93 L 414.12 262.21 L 423.16 262.50 L 429.87 275.00 C449.03,310.72 485.19,376.13 487.14,378.61 C487.74,379.37 482.43,382.17 470.26,387.50 C460.49,391.78 443.90,399.23 433.38,404.06 ZM 261.50 638.90 C246.10,645.55 233.05,650.97 232.50,650.95 C231.95,650.93 229.79,650.01 227.69,648.90 C225.60,647.80 221.63,646.62 218.87,646.30 C215.27,645.87 213.48,645.11 212.55,643.60 C211.83,642.45 206.62,633.62 200.98,624.00 C195.33,614.38 189.01,603.75 186.93,600.40 L 183.15 594.29 L 187.33 590.82 C206.94,574.49 250.38,543.98 283.15,523.54 C303.68,510.72 354.81,481.00 356.31,481.00 C356.77,481.00 346.69,514.82 338.26,541.50 C336.35,547.55 334.20,554.53 333.47,557.00 C332.74,559.47 330.11,568.03 327.61,576.00 C325.12,583.97 322.51,592.37 321.82,594.66 C320.77,598.15 320.00,598.98 316.95,599.90 C308.54,602.42 301.53,610.57 299.57,620.11 C299.17,622.06 297.83,623.24 294.27,624.77 C291.64,625.90 276.90,632.26 261.50,638.90 ZM 400.97 840.50 C395.59,850.40 389.24,862.12 386.85,866.56 L 382.50 874.61 L 377.58 871.56 C373.23,868.85 371.80,868.50 365.08,868.50 C360.91,868.50 356.36,868.86 354.96,869.31 C352.72,870.02 350.15,868.41 333.39,855.81 C322.92,847.94 303.27,833.17 289.72,823.00 C276.17,812.83 265.06,804.22 265.04,803.88 C265.02,803.53 266.46,802.97 268.25,802.63 C274.60,801.42 294.67,796.75 306.00,793.83 C331.34,787.32 340.21,784.88 356.50,779.94 C365.85,777.11 375.08,774.35 377.00,773.81 C382.61,772.26 429.58,756.54 440.25,752.64 C445.61,750.69 450.00,749.35 450.00,749.67 C450.00,749.99 445.44,758.64 439.86,768.88 C434.28,779.12 425.45,795.38 420.23,805.00 C415.01,814.62 406.34,830.60 400.97,840.50 ZM 193.71 772.63 C193.10,773.23 168.40,773.87 163.00,773.42 C136.96,771.26 120.84,767.86 108.30,761.89 C98.57,757.26 89.68,749.46 85.45,741.83 C82.72,736.90 82.50,735.75 82.55,726.50 C82.59,718.74 83.11,715.05 84.89,710.02 C90.38,694.46 101.53,676.08 115.97,658.78 C124.66,648.36 143.80,628.00 144.89,628.00 C145.59,628.00 147.65,634.12 157.49,665.50 C160.60,675.40 167.19,696.10 172.13,711.50 C177.08,726.90 182.71,744.45 184.64,750.50 C186.57,756.55 189.49,763.91 191.14,766.85 C192.78,769.79 193.94,772.39 193.71,772.63 ZM 635.35 411.61 C632.07,417.67 630.63,421.09 629.02,421.16 C627.40,421.24 625.62,417.92 621.63,410.48 C620.90,409.10 620.09,407.59 619.19,405.94 C613.33,395.14 610.11,388.16 610.50,387.14 C610.85,386.24 613.69,381.17 616.81,375.88 L 622.50 366.27 L 627.49 365.65 C630.23,365.31 634.73,363.86 637.49,362.42 C641.74,360.19 663.75,353.00 666.30,353.00 C666.76,353.00 665.37,356.26 663.20,360.25 C656.64,372.33 639.44,404.04 635.35,411.61 ZM 593.10 339.11 C589.47,340.31 586.01,341.47 585.40,341.69 C584.80,341.92 579.44,333.19 573.50,322.30 C567.55,311.41 559.43,296.65 555.46,289.50 C551.49,282.35 548.34,276.38 548.47,276.24 C548.59,276.09 550.45,276.72 552.60,277.64 C554.74,278.55 559.23,279.35 562.57,279.40 L 568.64 279.50 L 581.07 296.31 C587.91,305.56 595.40,315.68 597.72,318.81 C602.21,324.86 602.68,327.00 600.85,333.10 C599.78,336.67 599.25,337.09 593.10,339.11 ZM 205.00 712.08 C205.00,720.84 204.62,728.00 204.16,728.00 C203.70,728.00 202.72,726.09 201.99,723.75 C201.26,721.41 198.96,714.33 196.88,708.00 C194.80,701.67 190.34,687.72 186.97,677.00 C183.60,666.28 178.16,649.23 174.88,639.13 C171.60,629.02 169.10,620.56 169.34,620.33 C169.57,620.09 171.64,623.19 173.93,627.20 C176.21,631.22 181.47,640.28 185.61,647.33 C192.60,659.25 193.06,660.39 192.07,663.23 C190.73,667.06 190.68,676.41 191.98,680.92 C193.36,685.74 197.70,691.65 201.64,694.09 L 205.00 696.16 ZM 283.30 337.30 C277.36,339.84 268.31,343.71 263.18,345.91 C258.06,348.11 254.01,349.52 254.18,349.05 C254.36,348.58 261.48,343.13 270.00,336.94 C278.52,330.75 287.75,324.03 290.50,322.00 C293.25,319.97 299.48,315.43 304.34,311.91 C309.21,308.38 318.53,301.56 325.06,296.75 C331.59,291.94 337.17,288.00 337.46,288.00 C337.76,288.00 333.89,293.58 328.88,300.39 C320.37,311.96 319.51,312.82 315.78,313.42 C307.34,314.77 300.07,320.05 296.62,327.33 C294.11,332.65 294.05,332.69 283.30,337.30 ZM 514.33 430.34 C513.36,431.31 460.00,431.15 460.00,430.18 C460.00,429.33 466.66,426.20 490.00,416.09 C500.02,411.75 503.79,410.53 504.62,411.37 C506.70,413.46 514.99,429.67 514.33,430.34 ZM 794.70 122.43 C797.42,125.14 798.93,124.95 803.30,121.36 C804.83,120.09 807.76,118.60 809.80,118.05 C815.69,116.46 818.00,114.35 818.00,110.57 C818.00,105.71 815.86,104.47 807.92,104.69 C799.50,104.92 793.85,106.40 791.52,108.97 C789.92,110.74 789.87,111.45 790.99,115.47 C791.69,117.95 793.36,121.08 794.70,122.43 ZM 530.36 895.30 C529.13,896.54 489.00,896.13 489.00,894.89 C489.00,893.37 494.15,884.00 494.98,884.00 C497.31,884.00 530.93,894.74 530.36,895.30 ZM 783.00 534.31 C786.09,535.41 788.16,534.93 790.55,532.55 C793.71,529.38 793.67,525.58 790.45,522.36 C787.66,519.57 784.11,519.70 780.75,522.73 C777.53,525.64 778.93,532.85 783.00,534.31 Z" fill="rgb(0,0,0)"/>
<path d="M 220.89 776.52 C214.07,777.33 206.58,777.99 204.22,777.99 L 199.95 778.00 L 201.36 775.25 C202.69,772.65 202.55,772.17 198.75,766.50 C194.80,760.59 190.54,750.80 189.55,745.31 C189.27,743.76 187.47,737.78 185.55,732.00 C175.69,702.34 167.89,678.12 167.49,675.94 C167.25,674.60 165.70,669.81 164.05,665.30 C162.40,660.79 160.83,655.84 160.55,654.30 C160.27,652.76 158.71,647.45 157.07,642.50 C147.10,612.39 146.00,607.82 146.00,596.62 L 146.00 587.33 L 142.09 584.20 C131.18,575.42 133.37,557.85 146.23,551.01 C150.31,548.85 151.05,547.95 152.00,544.01 C152.59,541.53 153.05,539.28 153.02,539.00 C152.99,538.72 154.59,533.78 156.58,528.00 C158.56,522.22 160.33,516.50 160.50,515.27 C160.68,514.05 162.40,508.20 164.32,502.27 C166.25,496.35 169.45,486.10 171.44,479.50 C177.18,460.48 181.89,445.34 185.65,433.87 C187.57,428.03 189.37,421.77 189.65,419.96 C189.94,418.15 191.48,413.12 193.08,408.78 C197.12,397.84 197.42,395.41 195.18,392.19 C187.69,381.43 190.75,368.20 202.05,362.47 C204.74,361.11 208.52,360.00 210.47,360.00 C213.66,360.00 214.26,359.53 216.75,355.07 C218.26,352.36 220.85,349.37 222.50,348.43 C224.15,347.49 226.62,345.71 228.00,344.49 C229.38,343.26 233.20,340.39 236.50,338.10 C242.58,333.88 248.62,329.51 259.50,321.48 C262.80,319.04 268.20,315.16 271.50,312.85 C274.80,310.54 277.73,308.36 278.00,308.00 C278.27,307.64 281.34,305.36 284.81,302.92 C296.42,294.78 321.59,276.42 326.91,272.20 C328.79,270.72 331.64,268.70 333.24,267.72 C334.84,266.74 337.13,265.02 338.32,263.91 C339.52,262.79 343.42,260.51 347.00,258.85 C361.18,252.26 361.57,251.99 362.91,247.42 C365.33,239.23 375.76,232.22 383.32,233.70 C387.21,234.46 393.32,238.18 395.28,241.00 C396.74,243.07 396.89,243.07 471.60,243.02 L 546.46 242.96 L 550.48 239.03 C559.27,230.44 571.96,232.44 578.40,243.42 C580.77,247.47 581.15,249.25 581.31,257.30 L 581.50 266.53 L 586.25 272.58 C588.86,275.90 591.00,278.92 591.00,279.28 C591.00,279.64 597.53,288.56 605.50,299.10 C613.47,309.65 620.00,318.66 620.00,319.14 C620.00,319.61 622.27,320.00 625.05,320.00 C631.41,320.00 635.24,321.96 639.01,327.17 C643.57,333.47 644.33,337.43 641.89,342.23 C640.77,344.41 639.82,347.51 639.78,349.13 C639.72,351.15 638.64,352.99 636.31,355.03 C632.62,358.27 632.78,358.22 625.37,358.53 C622.54,358.64 619.81,359.00 619.29,359.32 C618.76,359.65 616.15,363.64 613.48,368.20 C610.80,372.77 604.20,383.86 598.81,392.86 C593.41,401.86 589.00,409.43 589.00,409.68 C589.00,409.93 587.73,412.02 586.17,414.32 C584.62,416.62 581.88,421.09 580.10,424.25 L 576.85 430.00 L 579.57 435.56 C582.16,440.85 582.23,441.39 581.05,446.66 C580.21,450.42 578.71,453.42 576.41,455.97 C573.45,459.24 573.13,460.10 573.91,462.62 C574.40,464.20 576.42,470.90 578.39,477.50 C580.37,484.10 583.55,494.23 585.47,500.00 C587.39,505.77 589.21,511.97 589.50,513.77 C589.79,515.57 591.39,520.74 593.04,525.27 C594.69,529.80 596.24,534.56 596.48,535.85 C596.71,537.15 598.00,541.65 599.34,545.85 C600.68,550.06 603.70,559.80 606.06,567.50 C615.89,599.60 617.12,603.81 619.58,604.74 C620.02,604.91 620.50,604.97 621.08,605.07 C630.71,606.69 638.00,614.66 638.00,623.57 C638.00,625.45 638.49,627.00 639.08,627.00 C639.74,627.00 639.93,625.84 639.58,624.00 C639.26,622.35 638.73,619.59 638.39,617.86 C637.40,612.76 630.60,606.23 624.42,604.43 C619.59,603.03 618.99,602.53 617.60,598.70 C616.03,594.39 604.15,556.10 603.26,552.50 C602.99,551.40 600.13,542.17 596.91,532.00 C593.69,521.83 589.72,509.00 588.08,503.50 C586.45,498.00 583.07,486.75 580.59,478.50 C578.10,470.25 576.06,462.60 576.05,461.50 C576.04,460.40 577.36,457.55 578.97,455.17 C582.53,449.92 583.66,443.47 582.03,437.73 C581.16,434.65 580.54,432.70 580.54,430.75 C580.53,427.03 582.73,423.31 589.54,411.81 C589.86,411.27 590.19,410.71 590.53,410.13 C596.43,400.16 601.54,392.00 601.89,392.00 C602.23,392.00 608.20,402.44 615.14,415.21 C622.09,427.98 628.16,438.54 628.63,438.68 C629.11,438.82 636.00,426.92 643.94,412.22 C678.79,347.73 703.77,301.48 710.77,288.50 C714.92,280.80 726.49,259.42 736.48,241.00 C746.48,222.57 761.82,193.66 770.57,176.75 L 786.50 146.00 L 889.16 146.00 L 887.20 149.25 C886.12,151.04 879.72,162.62 872.98,175.00 C844.75,226.83 814.54,281.94 811.04,288.00 C808.97,291.58 804.00,300.58 799.99,308.00 C787.96,330.28 781.73,341.70 745.50,407.89 C699.83,491.34 679.73,529.81 680.42,532.45 C680.72,533.58 688.17,547.72 696.98,563.87 C705.79,580.02 713.00,593.75 713.00,594.38 C713.00,595.86 643.14,635.00 640.51,635.00 C640.11,635.00 640.09,633.80 640.45,632.33 C641.02,630.06 640.90,629.84 639.67,630.86 C638.87,631.52 637.69,633.29 637.05,634.78 C636.24,636.65 633.72,638.58 629.00,640.95 C621.25,644.84 617.06,645.17 611.29,642.35 L 607.50 640.50 L 602.43 644.50 C596.68,649.04 594.71,650.55 579.79,661.86 C570.78,668.70 566.20,671.27 550.90,678.07 C526.69,688.84 526.58,688.87 531.00,684.91 C532.92,683.19 536.53,680.41 539.00,678.75 C541.47,677.08 543.95,675.20 544.50,674.55 C545.05,673.91 548.20,671.41 551.50,668.99 C554.80,666.58 558.02,664.13 558.66,663.55 C559.30,662.97 563.08,660.03 567.05,657.00 C573.70,651.95 580.05,647.08 595.69,635.03 C601.33,630.68 601.49,630.43 601.15,626.33 C600.74,621.32 602.48,615.34 605.22,612.34 C606.58,610.83 606.98,609.45 606.52,607.84 C605.01,602.53 595.51,571.75 592.35,561.93 C590.48,556.12 588.74,550.27 588.49,548.94 C588.23,547.61 586.72,542.47 585.12,537.51 C577.28,513.16 574.53,504.38 574.34,503.08 C574.14,501.74 570.12,488.78 564.33,470.74 C561.85,463.03 561.80,462.98 557.52,461.90 C553.15,460.80 547.84,456.31 545.60,451.83 L 544.44 449.50 L 471.93 449.24 L 399.41 448.99 L 395.96 454.24 C392.97,458.79 391.75,459.74 386.99,461.29 L 381.47 463.09 L 378.26 472.79 C373.06,488.52 367.87,505.10 367.44,507.31 C367.22,508.43 365.49,514.12 363.58,519.93 C361.67,525.74 358.51,535.90 356.54,542.50 C353.19,553.77 350.73,561.80 342.45,588.50 C341.76,590.73 341.14,592.72 340.58,594.49 C336.93,606.20 336.18,608.59 336.95,610.31 C337.26,611.01 337.83,611.60 338.55,612.67 C341.61,617.18 343.35,623.46 342.68,627.60 C342.03,631.61 342.30,631.85 377.00,657.73 C381.12,660.81 384.73,663.59 385.00,663.92 C385.58,664.60 395.04,671.88 402.02,677.00 C404.64,678.92 413.40,685.67 421.49,692.00 C429.58,698.33 438.09,704.85 440.40,706.50 C442.72,708.15 446.74,711.29 449.33,713.49 L 454.06 717.47 L 449.28 719.16 C442.46,721.57 440.34,721.38 436.18,718.03 C432.34,714.93 424.85,709.12 413.31,700.29 C409.56,697.42 398.45,688.87 388.62,681.29 C378.79,673.70 368.89,666.22 366.62,664.66 C364.35,663.10 362.05,661.29 361.50,660.65 C360.95,660.01 355.04,655.37 348.37,650.35 L 336.24 641.23 L 330.64 643.12 C325.95,644.70 324.24,644.84 320.26,643.95 C317.64,643.36 314.33,641.77 312.90,640.40 L 310.30 637.91 L 298.90 642.81 C292.63,645.51 284.58,648.95 281.00,650.48 C268.08,655.98 253.40,662.33 248.50,664.53 C245.75,665.76 241.36,667.56 238.75,668.52 C234.48,670.10 234.00,670.59 233.99,673.39 C233.97,678.72 229.75,686.21 225.20,689.00 L 221.11 691.50 L 221.57 705.50 C221.82,713.20 222.24,725.12 222.50,732.00 C222.76,738.88 222.98,749.01 222.99,754.52 L 223.00 764.55 L 226.57 766.47 C230.03,768.33 234.71,773.63 233.74,774.59 C233.48,774.85 227.70,775.72 220.89,776.52 ZM 166.00 810.51 C145.98,812.08 115.21,812.24 100.00,810.87 C70.60,808.22 45.66,799.58 32.00,787.32 C4.51,762.62 11.77,722.49 53.06,671.00 C69.63,650.35 103.40,617.59 132.95,593.52 C144.52,584.10 145.00,584.32 145.00,599.13 C145.00,604.49 145.47,610.09 146.03,611.59 C147.03,614.20 146.39,614.99 130.71,630.90 C97.91,664.17 80.70,690.46 75.44,715.32 C72.09,731.14 75.46,745.04 85.20,755.61 C96.24,767.58 115.09,775.25 143.00,779.14 C155.23,780.84 194.40,780.86 211.50,779.18 C323.66,768.12 470.68,720.91 615.50,649.44 C774.79,570.82 900.54,475.51 936.99,405.74 C961.84,358.18 943.48,326.82 885.00,316.92 C868.66,314.15 830.00,313.99 804.64,316.60 L 797.77 317.30 L 798.47 314.90 C798.85,313.58 800.05,311.38 801.12,310.00 C802.20,308.62 804.92,303.67 807.17,299.00 C809.43,294.33 811.44,290.31 811.65,290.07 C812.74,288.83 849.53,284.92 870.26,283.84 C983.08,277.95 1029.81,315.45 995.39,384.25 C953.38,468.22 796.28,584.79 600.57,677.19 C441.93,752.10 280.70,801.57 166.00,810.51 ZM 226.10 656.20 C227.97,657.69 229.78,658.93 230.12,658.95 C231.46,659.05 269.54,642.79 270.72,641.61 C271.06,641.28 271.96,641.00 272.73,641.00 C273.50,641.00 276.59,639.88 279.59,638.50 C282.60,637.12 285.22,636.00 285.42,636.00 C285.61,636.00 290.04,633.99 295.25,631.54 C304.71,627.09 304.73,627.07 305.42,622.79 C306.49,616.11 310.16,610.78 315.81,607.70 C318.54,606.21 321.83,604.99 323.14,604.99 C323.33,604.99 323.50,605.00 323.66,605.01 C323.92,605.02 324.14,605.04 324.36,604.99 C325.78,604.68 326.60,601.57 333.92,577.50 C336.77,568.15 340.66,555.78 342.57,550.00 C344.48,544.22 346.26,538.30 346.53,536.83 C346.79,535.36 348.17,530.86 349.59,526.83 C351.01,522.80 352.56,517.70 353.03,515.50 C353.51,513.30 355.28,507.45 356.97,502.50 C358.66,497.55 360.24,492.44 360.48,491.14 C360.71,489.84 362.45,483.99 364.33,478.14 C364.82,476.63 365.27,475.25 365.68,473.97 C369.27,462.85 370.11,460.25 369.23,458.54 C368.86,457.83 368.18,457.27 367.28,456.30 C361.69,450.32 360.53,441.11 364.50,434.18 L 366.97 429.85 L 360.82 419.68 C357.44,414.08 354.18,408.60 353.58,407.50 C352.22,405.03 326.40,362.02 325.15,360.14 C324.58,359.28 322.27,358.77 318.87,358.76 C312.50,358.73 310.79,357.99 305.50,352.97 L 301.50 349.17 L 297.50 351.03 C291.37,353.88 283.49,357.33 272.50,361.97 C267.00,364.30 260.25,367.21 257.50,368.46 C254.75,369.71 251.38,371.07 250.00,371.49 C248.62,371.90 244.80,373.49 241.50,375.02 C238.20,376.54 233.81,378.48 231.75,379.34 C229.11,380.44 228.00,381.52 228.00,382.99 C228.00,385.38 224.97,391.42 222.10,394.77 C220.06,397.14 213.26,400.00 209.62,400.01 C207.83,400.01 207.13,401.27 205.11,408.26 C202.73,416.42 198.50,430.01 192.85,447.61 C191.23,452.63 189.70,458.03 189.44,459.61 C189.18,461.20 187.40,467.23 185.50,473.00 C183.59,478.77 180.52,488.45 178.67,494.50 C168.54,527.75 166.53,534.26 163.96,542.25 C162.41,547.06 161.54,551.00 162.03,551.00 C163.49,551.00 167.99,556.22 170.21,560.49 C173.02,565.89 172.99,573.66 170.14,578.49 C168.37,581.48 168.20,582.51 169.15,584.31 C170.81,587.45 188.57,617.38 193.00,624.50 C195.05,627.80 199.66,635.45 203.23,641.50 L 209.74 652.50 L 216.21 653.00 C221.28,653.39 223.44,654.09 226.10,656.20 ZM 398.00 435.73 C398.00,436.75 412.68,437.00 471.49,437.00 L 544.97 437.00 L 546.36 433.69 C547.12,431.86 549.66,428.85 552.01,426.99 C555.48,424.25 557.37,423.53 562.02,423.19 L 567.76 422.78 L 575.60 409.64 C579.91,402.41 589.17,386.93 596.18,375.23 C603.19,363.53 609.03,353.41 609.17,352.73 C609.31,352.05 608.59,349.37 607.58,346.76 C605.45,341.28 605.77,335.40 608.51,329.61 C610.26,325.94 610.26,325.70 608.49,322.65 C607.48,320.92 601.44,312.62 595.08,304.21 C588.71,295.79 580.76,284.99 577.41,280.21 C573.46,274.56 570.82,271.67 569.91,272.00 C569.13,272.27 565.77,272.50 562.42,272.50 C554.01,272.50 549.13,269.26 545.94,261.57 L 543.63 256.00 L 399.32 256.00 L 398.17 259.75 C396.69,264.60 391.02,270.51 386.38,272.04 C384.18,272.76 380.61,272.99 377.40,272.62 L 372.06 271.99 L 366.28 279.98 C363.10,284.38 354.31,296.28 346.75,306.43 C339.19,316.59 333.00,325.34 333.00,325.89 C333.00,326.44 334.00,328.58 335.21,330.64 C338.05,335.45 338.11,343.42 335.33,348.17 L 333.39 351.50 L 337.65 358.71 C340.00,362.67 343.01,367.63 344.34,369.71 C345.68,371.79 351.38,381.38 357.02,391.00 C362.66,400.62 369.32,411.76 371.81,415.75 C376.17,422.72 376.50,423.00 380.21,423.00 C382.34,423.00 385.82,423.89 387.94,424.97 C391.94,427.01 398.00,433.49 398.00,435.73 ZM 886.00 911.94 C886.00,912.67 870.71,913.00 836.54,913.00 L 787.08 913.00 L 784.64 908.75 C783.29,906.41 759.25,862.20 731.21,810.50 C703.17,758.80 672.98,703.16 664.12,686.85 C655.25,670.54 648.00,656.80 648.00,656.32 C648.00,655.84 651.94,653.51 656.75,651.14 C666.65,646.26 686.26,635.74 708.80,623.21 C717.69,618.26 724.46,615.07 724.95,615.60 C726.05,616.76 752.57,665.44 799.25,752.00 C821.86,793.92 856.12,856.80 872.64,886.69 C879.99,899.99 886.00,911.36 886.00,911.94 ZM 546.89 430.03 L 541.28 436.00 L 527.14 436.00 L 523.18 428.75 C501.65,389.32 493.63,374.75 476.76,344.50 C461.10,316.41 436.78,271.96 430.11,259.25 L 428.93 257.00 L 528.60 257.00 L 560.80 315.87 C578.51,348.25 593.00,375.22 593.00,375.81 C593.00,377.37 570.72,414.91 567.51,418.75 C565.45,421.23 564.01,422.00 561.47,422.00 C555.97,422.00 552.79,423.75 546.89,430.03 ZM 550.50 911.47 L 542.49 914.00 L 471.50 913.96 C411.55,913.92 399.88,913.68 396.50,912.44 C394.30,911.63 389.35,910.10 385.51,909.05 C379.69,907.45 378.26,907.35 377.01,908.44 C368.95,915.47 354.88,914.03 349.17,905.59 C346.50,901.64 346.18,900.39 346.08,893.39 C346.00,888.39 345.89,888.21 340.75,884.64 C335.34,880.88 324.69,872.97 321.94,870.65 C321.07,869.93 317.70,867.38 314.44,864.99 C311.17,862.60 308.27,860.35 308.00,860.00 C307.73,859.65 305.48,857.98 303.00,856.29 C300.52,854.60 297.38,852.22 296.00,851.00 C294.62,849.78 291.48,847.40 289.00,845.71 C286.52,844.02 284.27,842.35 284.00,842.01 C283.42,841.29 257.59,821.86 251.58,817.62 C249.34,816.03 247.27,814.39 247.00,813.97 C246.73,813.55 243.59,811.06 240.04,808.45 C233.99,804.00 233.73,803.64 235.89,802.85 C237.15,802.38 240.57,801.71 243.49,801.37 C248.99,800.73 249.59,800.99 257.98,807.72 C258.82,808.39 264.45,812.60 270.50,817.08 C276.55,821.55 281.73,825.51 282.00,825.88 C282.27,826.25 287.23,830.05 293.00,834.34 C298.77,838.62 304.69,843.03 306.15,844.14 C314.40,850.39 321.81,855.88 325.80,858.70 C328.29,860.46 330.59,862.28 330.91,862.74 C331.24,863.19 333.98,865.34 337.00,867.50 C340.02,869.66 342.73,871.68 343.00,871.97 C344.34,873.42 350.97,878.00 351.72,878.00 C352.19,878.00 354.34,877.10 356.50,876.00 C363.82,872.27 371.88,874.12 378.00,880.93 L 381.50 884.82 L 403.88 877.90 C416.19,874.10 427.47,870.77 428.96,870.51 C430.44,870.25 435.89,868.68 441.08,867.02 C446.26,865.37 451.06,864.01 451.75,864.01 C452.44,864.00 453.00,863.08 453.00,861.96 C453.00,857.34 461.55,846.00 465.03,846.00 C465.64,846.00 466.00,829.10 466.00,800.58 L 466.00 755.16 L 462.47 752.98 C458.71,750.66 454.00,744.55 454.00,742.00 C454.00,741.05 456.00,739.77 459.25,738.62 C462.14,737.61 471.85,733.90 480.84,730.39 C489.83,726.88 497.48,724.00 497.84,724.00 C498.20,724.00 496.61,725.69 494.31,727.75 C490.31,731.32 490.09,731.82 489.72,738.03 C489.28,745.50 487.65,748.59 482.07,752.45 L 478.23 755.11 L 477.48 789.81 C476.62,830.19 477.22,845.00 479.80,846.39 C483.81,848.56 488.69,854.86 489.58,859.04 C490.29,862.39 491.06,863.52 493.00,864.09 C494.38,864.49 499.33,866.00 504.00,867.44 C508.67,868.88 513.62,870.26 515.00,870.51 C516.38,870.76 526.95,873.89 538.50,877.48 C550.05,881.06 560.27,884.00 561.22,884.00 C562.17,884.00 563.94,882.65 565.16,881.00 C567.84,877.37 574.44,874.00 578.85,874.00 C586.41,874.00 593.20,879.30 596.06,887.44 C600.23,899.31 594.81,909.82 582.85,913.04 C578.00,914.35 572.26,912.93 568.07,909.40 C565.40,907.16 564.65,906.98 561.77,907.90 C559.97,908.47 554.90,910.08 550.50,911.47 ZM 499.65 857.25 C495.53,864.85 493.98,864.77 490.66,856.77 C489.81,854.72 487.02,850.80 484.45,848.05 L 479.79 843.07 L 479.26 832.78 C478.98,827.13 479.08,807.74 479.49,789.69 L 480.23 756.88 L 485.00 752.19 C489.98,747.28 491.98,742.60 491.99,735.83 C492.00,732.75 492.69,731.56 496.25,728.50 C502.66,722.98 510.95,718.69 535.84,707.97 C548.30,702.61 566.55,694.56 576.39,690.09 C586.24,685.62 594.48,682.15 594.72,682.39 C594.96,682.63 585.07,701.20 572.74,723.66 C552.21,761.05 507.12,843.47 499.65,857.25 ZM 497.81 700.44 C490.28,703.50 483.85,706.00 483.53,706.00 C482.80,706.00 483.63,704.38 498.51,677.00 C505.23,664.62 513.65,649.10 517.21,642.50 C533.58,612.21 575.39,535.24 576.71,532.96 C576.92,532.59 577.11,532.28 577.24,531.95 C578.08,529.79 576.30,526.63 561.21,499.67 L 560.28 498.00 C549.40,478.56 536.00,453.20 536.00,452.05 C536.00,451.47 537.36,451.00 539.03,451.00 C541.41,451.00 543.14,452.16 547.10,456.42 C549.88,459.40 553.83,462.51 555.88,463.34 C557.93,464.16 560.08,465.43 560.66,466.16 C561.24,466.90 563.62,473.80 565.95,481.50 C570.12,495.22 578.88,523.69 587.52,551.50 C589.91,559.20 592.30,567.08 592.83,569.00 C593.36,570.92 596.09,579.88 598.89,588.90 C601.70,597.93 604.00,606.48 604.00,607.90 C603.99,609.33 602.87,612.71 601.50,615.42 C599.93,618.51 598.99,622.04 598.98,624.92 C598.98,627.44 598.64,629.97 598.23,630.55 C597.83,631.13 586.92,639.72 574.00,649.64 C561.08,659.57 548.03,669.59 545.00,671.91 C520.17,691.00 518.32,692.11 497.81,700.44 ZM 184.39 582.69 C179.37,586.71 175.10,590.00 174.89,589.99 C174.01,589.98 171.00,583.69 171.00,581.87 C171.00,580.79 171.71,578.54 172.57,576.87 C173.56,574.95 174.04,571.83 173.88,568.38 C173.69,564.08 174.04,562.53 175.57,561.05 C180.94,555.85 225.46,526.12 257.00,506.67 C289.70,486.51 356.61,449.00 359.88,449.00 C360.52,449.00 361.50,450.18 362.05,451.63 C362.60,453.08 363.94,455.51 365.02,457.03 C366.11,458.56 367.00,461.13 367.00,462.75 C367.00,465.43 366.16,466.14 357.25,471.02 C287.75,509.07 228.41,547.40 184.39,582.69 ZM 397.00 877.97 C389.16,880.40 388.62,880.44 389.39,878.43 C390.11,876.55 454.58,757.51 456.70,754.15 L 458.18 751.80 L 461.09 754.59 L 464.00 757.37 L 464.00 843.27 L 459.03 848.16 C455.95,851.19 453.61,854.57 452.86,857.08 C452.19,859.30 450.83,861.55 449.83,862.09 C447.84,863.16 438.87,865.90 417.50,871.97 C409.80,874.16 400.58,876.86 397.00,877.97 ZM 393.00 899.01 L 401.50 901.85 L 471.63 901.92 L 541.76 902.00 L 548.40 899.50 C552.06,898.12 555.94,897.00 557.02,897.00 C558.11,897.00 559.00,896.47 559.00,895.83 C559.00,895.19 558.75,894.92 558.45,895.22 C558.14,895.52 553.76,894.51 548.70,892.97 C526.47,886.19 516.30,883.18 513.50,882.55 C511.85,882.18 505.38,880.27 499.12,878.29 C488.92,875.07 487.65,874.87 486.84,876.33 C485.66,878.44 477.04,884.37 476.27,883.61 C475.95,883.28 475.08,883.52 474.35,884.13 C473.36,884.94 471.75,884.92 468.27,884.05 C465.66,883.39 463.29,882.55 462.99,882.18 C462.70,881.80 460.84,880.00 458.85,878.17 L 455.25 874.85 L 440.87 879.33 C432.97,881.79 425.38,884.04 424.00,884.32 C422.62,884.60 419.25,885.50 416.50,886.32 C406.82,889.20 387.48,895.10 386.00,895.63 C385.17,895.93 388.32,897.45 393.00,899.01 ZM 206.71 757.36 C208.76,760.46 210.59,763.00 210.80,763.00 C211.00,763.00 210.88,746.91 210.54,727.25 C209.99,696.10 209.71,691.37 208.32,690.50 C197.94,683.97 194.13,673.05 198.95,663.60 L 200.90 659.77 L 195.11 650.14 C183.36,630.56 163.63,597.38 161.47,593.54 C157.86,587.13 157.00,587.84 157.00,597.26 C157.00,603.00 157.62,607.49 158.95,611.34 C160.02,614.45 160.70,617.00 160.47,617.00 C160.24,617.00 161.44,620.71 163.13,625.25 C164.83,629.79 166.81,635.75 167.53,638.50 C168.25,641.25 173.37,657.45 178.91,674.50 C184.45,691.55 189.23,706.84 189.54,708.48 C189.86,710.12 190.97,713.40 192.02,715.77 C193.07,718.14 194.92,723.78 196.14,728.29 C197.35,732.81 199.40,739.17 200.67,742.44 C201.95,745.71 203.00,749.13 203.00,750.05 C203.00,750.97 204.67,754.26 206.71,757.36 ZM 224.37 367.52 C225.18,369.62 225.71,369.50 236.66,364.57 C247.98,359.47 264.51,352.35 277.50,346.98 C294.11,340.12 300.01,337.13 300.59,335.31 C303.84,325.11 309.65,320.00 317.98,320.00 L 322.58 320.00 L 334.04 304.52 C359.32,270.38 362.84,265.50 362.46,265.12 C361.59,264.25 351.10,269.55 344.14,274.38 C340.08,277.20 334.05,281.39 330.72,283.70 C327.40,286.01 324.42,288.31 324.09,288.82 C323.77,289.32 321.02,291.38 318.00,293.40 C314.98,295.42 309.80,299.09 306.50,301.56 C303.20,304.03 297.80,307.92 294.50,310.20 C291.20,312.48 288.27,314.66 288.00,315.04 C287.73,315.42 285.65,317.03 283.39,318.62 C279.90,321.06 266.46,330.81 248.05,344.25 C227.95,358.92 222.95,363.83 224.37,367.52 ZM 448.18 425.84 L 425.86 436.00 L 414.18 435.97 C402.20,435.94 399.79,435.34 397.99,431.98 C397.05,430.23 397.99,429.52 407.73,424.64 C428.14,414.41 493.59,385.00 495.95,385.00 C497.04,385.00 504.18,397.37 504.37,399.59 C504.46,400.58 498.92,403.46 487.50,408.36 C478.15,412.38 460.46,420.25 448.18,425.84 ZM 482.53 888.86 L 476.83 900.00 L 438.66 899.92 C402.26,899.85 396.04,899.43 393.49,896.83 C392.40,895.73 395.73,894.44 412.50,889.48 C444.09,880.14 451.53,878.06 453.61,878.03 C454.77,878.01 457.42,879.35 459.50,881.00 C467.31,887.21 476.44,887.14 484.36,880.81 L 488.22 877.73 ZM 662.34 345.70 C641.02,351.91 640.74,351.95 641.62,348.25 C641.98,346.74 642.93,344.22 643.72,342.65 C644.72,340.66 644.96,338.32 644.50,334.98 L 643.83 330.16 L 655.17 326.66 C674.46,320.71 690.89,316.00 692.38,316.00 C693.32,316.00 691.49,320.17 686.99,328.25 L 680.18 340.50 ZM 597.25 365.79 C595.74,366.35 593.81,367.03 592.98,367.29 C591.16,367.85 582.29,352.31 583.65,350.96 C584.72,349.90 601.34,344.00 603.26,344.00 C604.91,344.00 607.00,348.09 607.00,351.33 C607.00,354.81 600.39,364.61 597.25,365.79 ZM 600.16 655.35 C580.06,665.07 579.30,664.37 596.03,651.58 C601.48,647.41 606.82,644.00 607.90,644.00 C611.37,644.00 615.00,645.85 614.43,647.32 C614.14,648.08 607.71,651.70 600.16,655.35 ZM 163.00 600.04 C163.00,600.53 162.10,601.41 161.00,602.00 C159.18,602.98 159.00,602.76 159.00,599.54 C159.00,597.59 159.19,596.00 159.43,596.00 C160.23,596.00 163.00,599.14 163.00,600.04 ZM 812.50 110.91 C807.71,112.80 805.21,112.99 804.64,111.49 C804.17,110.28 805.05,110.01 809.28,110.06 C812.90,110.11 813.89,110.37 812.50,110.91 Z" fill="rgb(70,8,55)"/>
<path d="M 397.00 919.62 C394.52,918.92 390.19,917.51 387.37,916.48 L 382.24 914.62 L 376.25 917.31 C365.20,922.27 354.41,920.35 346.65,912.05 C342.27,907.37 339.00,899.84 339.00,894.44 C339.00,891.81 338.25,891.19 305.50,866.49 C276.53,844.64 251.04,825.32 239.19,816.25 L 230.89 809.88 L 225.69 810.92 C218.45,812.37 195.50,815.53 176.50,817.68 C164.65,819.03 152.98,819.50 131.50,819.50 C101.95,819.50 93.97,818.80 73.50,814.42 C40.56,807.38 17.64,790.91 11.11,769.57 C2.32,740.85 14.40,706.78 48.36,664.50 C63.85,645.22 102.18,608.44 131.95,584.30 C132.20,584.09 131.66,581.93 130.76,579.49 C129.67,576.56 129.19,572.52 129.33,567.66 C129.51,561.41 130.00,559.53 132.55,555.41 C134.21,552.73 137.80,548.85 140.53,546.79 C143.26,544.73 145.74,542.02 146.03,540.77 C146.32,539.52 147.76,534.67 149.24,530.00 C150.72,525.33 153.70,515.65 155.87,508.50 C158.04,501.35 162.84,485.83 166.54,474.00 C170.24,462.17 174.04,449.80 174.99,446.50 C176.48,441.32 183.89,416.74 188.50,401.68 C189.87,397.18 189.84,396.60 187.94,392.89 C185.33,387.77 184.35,377.55 185.97,372.41 C188.94,363.02 195.44,357.02 205.03,354.80 C209.26,353.83 210.44,353.01 212.64,349.53 C214.46,346.65 220.37,341.71 232.37,333.02 C249.33,320.75 254.54,316.94 273.00,303.38 C278.23,299.54 285.59,294.17 289.37,291.45 C302.68,281.86 307.61,278.26 319.00,269.86 C335.56,257.64 339.35,255.17 348.09,250.90 C355.40,247.33 356.07,246.72 358.50,241.58 C361.80,234.61 366.97,230.48 374.93,228.44 C384.14,226.08 393.74,228.63 399.47,234.97 C401.29,236.97 402.21,237.00 471.78,237.00 L 542.26 237.00 L 546.07 233.55 C552.55,227.70 564.70,226.00 573.17,229.76 C582.00,233.68 589.09,245.87 587.67,254.67 C586.60,261.24 588.14,263.97 607.52,290.00 C612.23,296.33 617.85,304.03 620.00,307.13 C623.59,312.30 624.30,312.82 628.71,313.48 C634.52,314.35 636.53,315.33 640.73,319.29 L 643.96 322.35 L 654.23 319.16 C659.88,317.40 670.48,314.23 677.78,312.11 C685.09,310.00 691.22,308.09 691.40,307.88 C692.91,306.16 750.82,198.27 764.87,171.00 C772.66,155.88 780.18,142.49 781.57,141.25 L 784.11 139.00 L 837.90 139.00 C898.82,139.00 895.00,138.46 895.00,147.02 C895.00,151.31 888.92,163.48 868.00,201.00 C865.40,205.68 857.50,220.07 850.45,233.00 C843.41,245.93 834.79,261.67 831.30,268.00 C826.34,276.99 825.30,279.57 826.52,279.83 C827.38,280.01 837.86,279.18 849.79,277.97 C878.01,275.12 916.78,275.53 937.50,278.90 C966.64,283.65 983.88,290.83 997.35,303.85 C1004.34,310.61 1007.32,315.04 1010.78,323.88 C1013.14,329.88 1013.38,331.81 1013.39,344.50 C1013.41,361.56 1011.65,368.68 1003.01,386.50 C991.16,410.93 974.74,432.33 945.03,462.03 C896.64,510.42 831.97,558.44 747.25,608.88 C740.51,612.89 735.00,616.30 735.00,616.44 C735.00,616.59 738.30,622.74 742.34,630.11 C746.37,637.47 751.84,647.55 754.48,652.50 C757.13,657.45 759.61,661.95 760.00,662.50 C760.39,663.05 762.87,667.55 765.51,672.50 C768.16,677.45 774.59,689.38 779.80,699.00 C785.01,708.62 790.84,719.42 792.76,723.00 C794.67,726.58 800.63,737.60 805.99,747.50 C811.35,757.40 821.71,776.53 829.01,790.00 C836.31,803.47 853.54,834.97 867.29,860.00 C881.05,885.03 892.65,907.00 893.07,908.84 C893.98,912.84 892.51,917.66 889.96,919.02 C888.84,919.62 868.45,920.00 837.02,920.00 C794.99,920.00 785.42,919.75 783.17,918.59 C781.02,917.48 772.45,902.44 742.56,847.34 C721.72,808.93 700.76,770.30 695.97,761.50 C683.46,738.50 663.70,702.12 653.40,683.13 C648.51,674.12 644.03,666.57 643.45,666.34 C642.86,666.11 633.53,670.26 622.72,675.56 L 603.06 685.18 L 593.38 702.84 C588.05,712.55 581.56,724.33 578.95,729.00 C574.38,737.18 570.28,744.65 545.22,790.50 C504.20,865.51 506.60,860.91 508.17,861.49 C511.66,862.76 554.81,875.33 557.03,875.72 C558.78,876.02 561.19,875.07 564.83,872.62 C574.29,866.25 584.54,866.23 593.72,872.58 C599.09,876.30 599.52,876.92 602.28,884.94 L 605.19 893.38 L 603.59 899.94 C601.42,908.81 597.75,913.80 590.74,917.38 C583.07,921.30 576.26,921.34 568.42,917.50 L 562.73 914.72 L 554.61 917.61 L 546.50 920.50 L 474.00 920.69 C417.92,920.85 400.48,920.60 397.00,919.62 ZM 550.50 911.47 C554.90,910.08 559.97,908.47 561.77,907.90 C564.65,906.98 565.40,907.16 568.07,909.40 C572.26,912.93 578.00,914.35 582.85,913.04 C594.81,909.82 600.23,899.31 596.06,887.44 C593.20,879.30 586.41,874.00 578.85,874.00 C574.44,874.00 567.84,877.37 565.16,881.00 C563.94,882.65 562.17,884.00 561.22,884.00 C560.27,884.00 550.05,881.06 538.50,877.48 C526.95,873.89 516.38,870.76 515.00,870.51 C513.62,870.26 508.67,868.88 504.00,867.44 C499.33,866.00 494.38,864.49 493.00,864.09 C491.06,863.52 490.29,862.39 489.58,859.04 C488.69,854.86 483.81,848.56 479.80,846.39 C477.22,845.00 476.62,830.19 477.48,789.81 L 478.23 755.11 L 482.07 752.45 C487.65,748.59 489.28,745.50 489.72,738.03 C490.09,731.82 490.31,731.32 494.31,727.75 C496.61,725.69 498.20,724.00 497.84,724.00 C497.48,724.00 489.83,726.88 480.84,730.39 C471.85,733.90 462.14,737.61 459.25,738.62 C456.00,739.77 454.00,741.05 454.00,742.00 C454.00,744.55 458.71,750.66 462.47,752.98 L 466.00 755.16 L 466.00 800.58 C466.00,829.10 465.64,846.00 465.03,846.00 C461.55,846.00 453.00,857.34 453.00,861.96 C453.00,863.08 452.44,864.00 451.75,864.01 C451.06,864.01 446.26,865.37 441.08,867.02 C435.89,868.68 430.44,870.25 428.96,870.51 C427.47,870.77 416.19,874.10 403.88,877.90 L 381.50 884.82 L 378.00 880.93 C371.88,874.12 363.82,872.27 356.50,876.00 C354.34,877.10 352.19,878.00 351.72,878.00 C350.97,878.00 344.34,873.42 343.00,871.97 C342.73,871.68 340.02,869.66 337.00,867.50 C333.98,865.34 331.24,863.19 330.91,862.74 C330.59,862.28 328.29,860.46 325.80,858.70 C321.81,855.88 314.40,850.39 306.15,844.14 C304.69,843.03 298.77,838.62 293.00,834.34 C287.23,830.05 282.27,826.25 282.00,825.88 C281.73,825.51 276.55,821.55 270.50,817.08 C264.45,812.60 258.82,808.39 257.98,807.72 C249.59,800.99 248.99,800.73 243.49,801.37 C240.57,801.71 237.15,802.38 235.89,802.85 C233.73,803.64 233.99,804.00 240.04,808.45 C243.59,811.06 246.73,813.55 247.00,813.97 C247.27,814.39 249.34,816.03 251.58,817.62 C257.59,821.86 283.42,841.29 284.00,842.01 C284.27,842.35 286.52,844.02 289.00,845.71 C291.48,847.40 294.62,849.78 296.00,851.00 C297.38,852.22 300.52,854.60 303.00,856.29 C305.48,857.98 307.73,859.65 308.00,860.00 C308.27,860.35 311.17,862.60 314.44,864.99 C317.70,867.38 321.07,869.93 321.94,870.65 C324.69,872.97 335.34,880.88 340.75,884.64 C345.89,888.21 346.00,888.39 346.08,893.39 C346.18,900.39 346.50,901.64 349.17,905.59 C354.88,914.03 368.95,915.47 377.01,908.44 C378.26,907.35 379.69,907.45 385.51,909.05 C389.35,910.10 394.30,911.63 396.50,912.44 C399.88,913.68 411.55,913.92 471.50,913.96 L 542.49 914.00 L 550.50 911.47 ZM 886.00 911.94 C886.00,911.36 879.99,899.99 872.64,886.69 C856.12,856.80 821.86,793.92 799.25,752.00 C752.57,665.44 726.05,616.76 724.95,615.60 C724.46,615.07 717.69,618.26 708.80,623.21 C686.26,635.74 666.65,646.26 656.75,651.14 C651.94,653.51 648.00,655.84 648.00,656.32 C648.00,656.80 655.25,670.54 664.12,686.85 C672.98,703.16 703.17,758.80 731.21,810.50 C759.25,862.20 783.29,906.41 784.64,908.75 L 787.08 913.00 L 836.54 913.00 C870.71,913.00 886.00,912.67 886.00,911.94 ZM 397.00 877.97 C400.58,876.86 409.80,874.16 417.50,871.97 C438.87,865.90 447.84,863.16 449.83,862.09 C450.83,861.55 452.19,859.30 452.86,857.08 C453.61,854.57 455.95,851.19 459.03,848.16 L 464.00 843.27 L 464.00 800.32 L 464.00 757.37 L 461.09 754.59 L 458.18 751.80 L 456.70 754.15 C454.58,757.51 390.11,876.55 389.39,878.43 C388.62,880.44 389.16,880.40 397.00,877.97 ZM 400.97 840.50 C406.34,830.60 415.01,814.62 420.23,805.00 C425.45,795.38 434.28,779.12 439.86,768.88 C445.44,758.64 450.00,749.99 450.00,749.67 C450.00,749.35 445.61,750.69 440.25,752.64 C429.58,756.54 382.61,772.26 377.00,773.81 C375.08,774.35 365.85,777.11 356.50,779.94 C340.21,784.88 331.34,787.32 306.00,793.83 C294.67,796.75 274.60,801.42 268.25,802.63 C266.46,802.97 265.02,803.53 265.04,803.88 C265.06,804.22 276.17,812.83 289.72,823.00 C303.27,833.17 322.92,847.94 333.39,855.81 C350.15,868.41 352.72,870.02 354.96,869.31 C356.36,868.86 360.91,868.50 365.08,868.50 C371.80,868.50 373.23,868.85 377.58,871.56 L 382.50 874.61 L 386.85 866.56 C389.24,862.12 395.59,850.40 400.97,840.50 ZM 499.65 857.25 C507.12,843.47 552.21,761.05 572.74,723.66 C585.07,701.20 594.96,682.63 594.72,682.39 C594.48,682.15 586.24,685.62 576.39,690.09 C566.55,694.56 548.30,702.61 535.84,707.97 C510.95,718.69 502.66,722.98 496.25,728.50 C492.69,731.56 492.00,732.75 491.99,735.83 C491.98,742.60 489.98,747.28 485.00,752.19 L 480.23 756.88 L 479.49 789.69 C479.08,807.74 478.98,827.13 479.26,832.78 L 479.79 843.07 L 484.45 848.05 C487.02,850.80 489.81,854.72 490.66,856.77 C493.98,864.77 495.53,864.85 499.65,857.25 ZM 166.00 810.51 C280.70,801.57 441.93,752.10 600.57,677.19 C796.28,584.79 953.38,468.22 995.39,384.25 C1029.81,315.45 983.08,277.95 870.26,283.84 C849.53,284.92 812.74,288.83 811.65,290.07 C811.44,290.31 809.43,294.33 807.17,299.00 C804.92,303.67 802.20,308.62 801.12,310.00 C800.05,311.38 798.85,313.58 798.47,314.90 L 797.77 317.30 L 804.64 316.60 C830.00,313.99 868.66,314.15 885.00,316.92 C943.48,326.82 961.84,358.18 936.99,405.74 C900.54,475.51 774.79,570.82 615.50,649.44 C470.68,720.91 323.66,768.12 211.50,779.18 C194.40,780.86 155.23,780.84 143.00,779.14 C115.09,775.25 96.24,767.58 85.20,755.61 C75.46,745.04 72.09,731.14 75.44,715.32 C80.70,690.46 97.91,664.17 130.71,630.90 C146.39,614.99 147.03,614.20 146.03,611.59 C145.47,610.09 145.00,604.49 145.00,599.13 C145.00,584.32 144.52,584.10 132.95,593.52 C103.40,617.59 69.63,650.35 53.06,671.00 C11.77,722.49 4.51,762.62 32.00,787.32 C45.66,799.58 70.60,808.22 100.00,810.87 C115.21,812.24 145.98,812.08 166.00,810.51 ZM 220.89 776.52 C227.70,775.72 233.48,774.85 233.74,774.59 C234.71,773.63 230.03,768.33 226.57,766.47 L 223.00 764.55 L 222.99 754.52 C222.98,749.01 222.76,738.88 222.50,732.00 C222.24,725.12 221.82,713.20 221.57,705.50 L 221.11 691.50 L 225.20 689.00 C229.75,686.21 233.97,678.72 233.99,673.39 C234.00,670.59 234.48,670.10 238.75,668.52 C241.36,667.56 245.75,665.76 248.50,664.53 C253.40,662.33 268.08,655.98 281.00,650.48 C284.58,648.95 292.63,645.51 298.90,642.81 L 310.30 637.91 L 312.90 640.40 C314.33,641.77 317.64,643.36 320.26,643.95 C324.24,644.84 325.95,644.70 330.64,643.12 L 336.24 641.23 L 348.37 650.35 C355.04,655.37 360.95,660.01 361.50,660.65 C362.05,661.29 364.35,663.10 366.62,664.66 C368.89,666.22 378.79,673.70 388.62,681.29 C398.45,688.87 409.56,697.42 413.31,700.29 C424.85,709.12 432.34,714.93 436.18,718.03 C440.34,721.38 442.46,721.57 449.28,719.16 L 454.06 717.47 L 449.33 713.49 C446.74,711.29 442.72,708.15 440.40,706.50 C438.09,704.85 429.58,698.33 421.49,692.00 C413.40,685.67 404.64,678.92 402.02,677.00 C395.04,671.88 385.58,664.60 385.00,663.92 C384.73,663.59 381.12,660.81 377.00,657.73 C342.30,631.85 342.03,631.61 342.68,627.60 C343.35,623.46 341.61,617.18 338.55,612.67 C335.79,608.60 335.32,611.47 342.45,588.50 C350.73,561.80 353.19,553.77 356.54,542.50 C358.51,535.90 361.67,525.74 363.58,519.93 C365.49,514.12 367.22,508.43 367.44,507.31 C367.87,505.10 373.06,488.52 378.26,472.79 L 381.47 463.09 L 386.99 461.29 C391.75,459.74 392.97,458.79 395.96,454.24 L 399.41 448.99 L 471.93 449.24 L 544.44 449.50 L 545.60 451.83 C547.84,456.31 553.15,460.80 557.52,461.90 C561.80,462.98 561.85,463.03 564.33,470.74 C570.12,488.78 574.14,501.74 574.34,503.08 C574.53,504.38 577.28,513.16 585.12,537.51 C586.72,542.47 588.23,547.61 588.49,548.94 C588.74,550.27 590.48,556.12 592.35,561.93 C595.51,571.75 605.01,602.53 606.52,607.84 C606.98,609.45 606.58,610.83 605.22,612.34 C602.48,615.34 600.74,621.32 601.15,626.33 C601.49,630.43 601.33,630.68 595.69,635.03 C580.05,647.08 573.70,651.95 567.05,657.00 C563.08,660.03 559.30,662.97 558.66,663.55 C558.02,664.13 554.80,666.58 551.50,668.99 C548.20,671.41 545.05,673.91 544.50,674.55 C543.95,675.20 541.47,677.08 539.00,678.75 C536.53,680.41 532.92,683.19 531.00,684.91 C526.58,688.87 526.69,688.84 550.90,678.07 C566.20,671.27 570.78,668.70 579.79,661.86 C594.71,650.55 596.68,649.04 602.43,644.50 L 607.50 640.50 L 611.29 642.35 C617.06,645.17 621.25,644.84 629.00,640.95 C633.72,638.58 636.24,636.65 637.05,634.78 C637.69,633.29 638.87,631.52 639.67,630.86 C640.90,629.84 641.02,630.06 640.45,632.33 C640.09,633.80 640.11,635.00 640.51,635.00 C643.14,635.00 713.00,595.86 713.00,594.38 C713.00,593.75 705.79,580.02 696.98,563.87 C688.17,547.72 680.72,533.58 680.42,532.45 C679.73,529.81 699.83,491.34 745.50,407.89 C781.73,341.70 787.96,330.28 799.99,308.00 C804.00,300.58 808.97,291.58 811.04,288.00 C814.54,281.94 844.75,226.83 872.98,175.00 C879.72,162.62 886.12,151.04 887.20,149.25 L 889.16 146.00 L 837.83 146.00 L 786.50 146.00 L 770.57 176.75 C761.82,193.66 746.48,222.57 736.48,241.00 C726.49,259.42 714.92,280.80 710.77,288.50 C703.77,301.48 678.79,347.73 643.94,412.22 C636.00,426.92 629.11,438.82 628.63,438.68 C628.16,438.54 622.09,427.98 615.14,415.21 C608.20,402.44 602.23,392.00 601.89,392.00 C601.54,392.00 596.43,400.16 590.53,410.13 C579.14,429.40 579.41,428.52 582.03,437.73 C583.66,443.47 582.53,449.92 578.97,455.17 C577.36,457.55 576.04,460.40 576.05,461.50 C576.06,462.60 578.10,470.25 580.59,478.50 C583.07,486.75 586.45,498.00 588.08,503.50 C589.72,509.00 593.69,521.83 596.91,532.00 C600.13,542.17 602.99,551.40 603.26,552.50 C604.15,556.10 616.03,594.39 617.60,598.70 C618.99,602.53 619.59,603.03 624.42,604.43 C630.60,606.23 637.40,612.76 638.39,617.86 C638.73,619.59 639.26,622.35 639.58,624.00 C639.93,625.84 639.74,627.00 639.08,627.00 C638.49,627.00 638.00,625.45 638.00,623.57 C638.00,614.66 630.71,606.69 621.08,605.07 C617.28,604.43 617.65,605.36 606.06,567.50 C603.70,559.80 600.68,550.06 599.34,545.85 C598.00,541.65 596.71,537.15 596.48,535.85 C596.24,534.56 594.69,529.80 593.04,525.27 C591.39,520.74 589.79,515.57 589.50,513.77 C589.21,511.97 587.39,505.77 585.47,500.00 C583.55,494.23 580.37,484.10 578.39,477.50 C576.42,470.90 574.40,464.20 573.91,462.62 C573.13,460.10 573.45,459.24 576.41,455.97 C578.71,453.42 580.21,450.42 581.05,446.66 C582.23,441.39 582.16,440.85 579.57,435.56 L 576.85 430.00 L 580.10 424.25 C581.88,421.09 584.62,416.62 586.17,414.32 C587.73,412.02 589.00,409.93 589.00,409.68 C589.00,409.43 593.41,401.86 598.81,392.86 C604.20,383.86 610.80,372.77 613.48,368.20 C616.15,363.64 618.76,359.65 619.29,359.32 C619.81,359.00 622.54,358.64 625.37,358.53 C632.78,358.22 632.62,358.27 636.31,355.03 C638.64,352.99 639.72,351.15 639.78,349.13 C639.82,347.51 640.77,344.41 641.89,342.23 C644.33,337.43 643.57,333.47 639.01,327.17 C635.24,321.96 631.41,320.00 625.05,320.00 C622.27,320.00 620.00,319.61 620.00,319.14 C620.00,318.66 613.47,309.65 605.50,299.10 C597.53,288.56 591.00,279.64 591.00,279.28 C591.00,278.92 588.86,275.90 586.25,272.58 L 581.50 266.53 L 581.31 257.30 C581.15,249.25 580.77,247.47 578.40,243.42 C571.96,232.44 559.27,230.44 550.48,239.03 L 546.46 242.96 L 471.60 243.02 C396.89,243.07 396.74,243.07 395.28,241.00 C393.32,238.18 387.21,234.46 383.32,233.70 C375.76,232.22 365.33,239.23 362.91,247.42 C361.57,251.99 361.18,252.26 347.00,258.85 C343.42,260.51 339.52,262.79 338.32,263.91 C337.13,265.02 334.84,266.74 333.24,267.72 C331.64,268.70 328.79,270.72 326.91,272.20 C321.59,276.42 296.42,294.78 284.81,302.92 C281.34,305.36 278.27,307.64 278.00,308.00 C277.73,308.36 274.80,310.54 271.50,312.85 C268.20,315.16 262.80,319.04 259.50,321.48 C248.62,329.51 242.58,333.88 236.50,338.10 C233.20,340.39 229.38,343.26 228.00,344.49 C226.62,345.71 224.15,347.49 222.50,348.43 C220.85,349.37 218.26,352.36 216.75,355.07 C214.26,359.53 213.66,360.00 210.47,360.00 C208.52,360.00 204.74,361.11 202.05,362.47 C190.75,368.20 187.69,381.43 195.18,392.19 C197.42,395.41 197.12,397.84 193.08,408.78 C191.48,413.12 189.94,418.15 189.65,419.96 C189.37,421.77 187.57,428.03 185.65,433.87 C181.89,445.34 177.18,460.48 171.44,479.50 C169.45,486.10 166.25,496.35 164.32,502.27 C162.40,508.20 160.68,514.05 160.50,515.27 C160.33,516.50 158.56,522.22 156.58,528.00 C154.59,533.78 152.99,538.72 153.02,539.00 C153.05,539.28 152.59,541.53 152.00,544.01 C151.05,547.95 150.31,548.85 146.23,551.01 C133.37,557.85 131.18,575.42 142.09,584.20 L 146.00 587.33 L 146.00 596.62 C146.00,607.82 147.10,612.39 157.07,642.50 C158.71,647.45 160.27,652.76 160.55,654.30 C160.83,655.84 162.40,660.79 164.05,665.30 C165.70,669.81 167.25,674.60 167.49,675.94 C167.89,678.12 175.69,702.34 185.55,732.00 C187.47,737.78 189.27,743.76 189.55,745.31 C190.54,750.80 194.80,760.59 198.75,766.50 C202.55,772.17 202.69,772.65 201.36,775.25 L 199.95 778.00 L 204.22 777.99 C206.58,777.99 214.07,777.33 220.89,776.52 ZM 193.71 772.63 C193.94,772.39 192.78,769.79 191.14,766.85 C189.49,763.91 186.57,756.55 184.64,750.50 C182.71,744.45 177.08,726.90 172.13,711.50 C167.19,696.10 160.60,675.40 157.49,665.50 C147.65,634.12 145.59,628.00 144.89,628.00 C143.80,628.00 124.66,648.36 115.97,658.78 C101.53,676.08 90.38,694.46 84.89,710.02 C83.11,715.05 82.59,718.74 82.55,726.50 C82.50,735.75 82.72,736.90 85.45,741.83 C89.68,749.46 98.57,757.26 108.30,761.89 C120.84,767.86 136.96,771.26 163.00,773.42 C168.40,773.87 193.10,773.23 193.71,772.63 ZM 248.50 767.06 C257.73,765.68 281.42,761.30 292.00,759.02 C315.52,753.95 364.81,740.90 384.14,734.64 C417.57,723.81 426.99,720.47 426.69,719.58 C426.50,719.00 417.38,711.67 406.42,703.30 C395.46,694.92 380.65,683.58 373.50,678.08 C366.35,672.59 358.02,666.20 355.00,663.88 C351.98,661.55 346.71,657.49 343.29,654.84 L 337.08 650.02 L 328.24 650.64 C320.54,651.19 318.78,651.00 314.57,649.14 C311.92,647.96 309.08,647.00 308.26,647.00 C306.92,647.00 291.17,653.57 253.79,669.73 L 241.08 675.23 L 239.50 680.66 C238.33,684.67 236.59,687.46 232.84,691.30 L 227.77 696.50 L 228.42 728.00 C229.00,756.01 229.26,759.61 230.76,760.50 C231.68,761.05 233.80,762.91 235.47,764.62 C238.87,768.12 239.99,768.33 248.50,767.06 ZM 467.58 705.83 L 475.67 702.85 L 504.25 650.18 C519.97,621.20 536.87,590.08 541.79,581.00 C546.71,571.92 554.85,556.93 559.87,547.68 C564.89,538.43 569.00,530.62 569.00,530.32 C569.00,530.02 561.85,516.66 553.10,500.64 C544.36,484.61 535.40,468.12 533.19,464.00 L 529.17 456.50 L 466.22 456.24 L 403.28 455.99 L 400.65 459.95 C398.81,462.74 396.27,464.74 392.08,466.71 C386.53,469.32 386.04,469.83 384.62,474.50 C383.78,477.25 379.69,490.52 375.51,504.00 C368.03,528.15 352.09,580.23 349.49,589.00 C348.76,591.47 347.24,596.57 346.13,600.33 L 344.10 607.16 L 346.56 612.72 C347.91,615.78 349.29,620.59 349.62,623.40 C350.21,628.40 350.38,628.63 358.36,634.74 C362.84,638.16 372.12,645.30 379.00,650.59 C385.88,655.88 395.55,663.28 400.50,667.04 C405.45,670.80 411.75,675.62 414.50,677.74 C424.95,685.83 442.77,699.58 449.46,704.71 C453.86,708.09 456.98,709.83 457.96,709.43 C458.81,709.09 463.14,707.47 467.58,705.83 ZM 497.81 700.44 C518.32,692.11 520.17,691.00 545.00,671.91 C548.03,669.59 561.08,659.57 574.00,649.64 C586.92,639.72 597.83,631.13 598.23,630.55 C598.64,629.97 598.98,627.44 598.98,624.92 C598.99,622.04 599.93,618.51 601.50,615.42 C602.87,612.71 603.99,609.33 604.00,607.90 C604.00,606.48 601.70,597.93 598.89,588.90 C596.09,579.88 593.36,570.92 592.83,569.00 C592.30,567.08 589.91,559.20 587.52,551.50 C578.88,523.69 570.12,495.22 565.95,481.50 C563.62,473.80 561.24,466.90 560.66,466.16 C560.08,465.43 557.93,464.16 555.88,463.34 C553.83,462.51 549.88,459.40 547.10,456.42 C543.14,452.16 541.41,451.00 539.03,451.00 C537.36,451.00 536.00,451.47 536.00,452.05 C536.00,453.20 549.40,478.56 560.28,498.00 C578.63,530.78 578.34,530.16 576.71,532.96 C575.39,535.24 533.58,612.21 517.21,642.50 C513.65,649.10 505.23,664.62 498.51,677.00 C483.63,704.38 482.80,706.00 483.53,706.00 C483.85,706.00 490.28,703.50 497.81,700.44 ZM 600.16 655.35 C607.71,651.70 614.14,648.08 614.43,647.32 C615.00,645.85 611.37,644.00 607.90,644.00 C606.82,644.00 601.48,647.41 596.03,651.58 C579.30,664.37 580.06,665.07 600.16,655.35 ZM 743.50 569.49 C844.06,505.65 914.76,440.35 934.48,393.11 C939.43,381.26 940.28,377.05 939.84,366.78 C939.47,358.52 939.07,356.86 936.16,351.78 C928.04,337.58 910.13,328.63 881.40,324.40 C866.53,322.21 832.16,321.95 813.25,323.89 L 800.01 325.25 L 793.87 336.37 C790.50,342.49 782.34,357.40 775.74,369.50 C769.15,381.60 758.69,400.73 752.50,412.00 C719.23,472.66 692.97,521.79 690.13,528.67 C688.90,531.64 689.07,532.30 692.79,539.17 C694.98,543.20 701.15,554.60 706.51,564.50 C711.87,574.40 716.67,583.02 717.18,583.66 C718.08,584.80 726.69,580.17 743.50,569.49 ZM 635.35 411.61 C639.44,404.04 656.64,372.33 663.20,360.25 C665.37,356.26 666.76,353.00 666.30,353.00 C663.75,353.00 641.74,360.19 637.49,362.42 C634.73,363.86 630.23,365.31 627.49,365.65 L 622.50 366.27 L 616.81 375.88 C613.69,381.17 610.85,386.24 610.50,387.14 C610.11,388.16 613.33,395.14 619.19,405.94 C629.79,425.48 628.16,424.91 635.35,411.61 ZM 662.34 345.70 L 680.18 340.50 L 686.99 328.25 C691.49,320.17 693.32,316.00 692.38,316.00 C690.89,316.00 674.46,320.71 655.17,326.66 L 643.83 330.16 L 644.50 334.98 C644.96,338.32 644.72,340.66 643.72,342.65 C642.93,344.22 641.98,346.74 641.62,348.25 C640.74,351.95 641.02,351.91 662.34,345.70 ZM 794.70 122.43 C793.36,121.08 791.69,117.95 790.99,115.47 C789.87,111.45 789.92,110.74 791.52,108.97 C793.85,106.40 799.50,104.92 807.92,104.69 C815.86,104.47 818.00,105.71 818.00,110.57 C818.00,114.35 815.69,116.46 809.80,118.05 C807.76,118.60 804.83,120.09 803.30,121.36 C798.93,124.95 797.42,125.14 794.70,122.43 ZM 812.50 110.91 C813.89,110.37 812.90,110.11 809.28,110.06 C805.05,110.01 804.17,110.28 804.64,111.49 C805.21,112.99 807.71,112.80 812.50,110.91 ZM 393.00 899.01 C388.32,897.45 385.17,895.93 386.00,895.63 C387.48,895.10 406.82,889.20 416.50,886.32 C419.25,885.50 422.62,884.60 424.00,884.32 C425.38,884.04 432.97,881.79 440.87,879.33 L 455.25 874.85 L 458.85 878.17 C460.84,880.00 462.70,881.80 462.99,882.18 C463.29,882.55 465.66,883.39 468.27,884.05 C471.75,884.92 473.36,884.94 474.35,884.13 C475.08,883.52 475.95,883.28 476.27,883.61 C477.04,884.37 485.66,878.44 486.84,876.33 C487.65,874.87 488.92,875.07 499.12,878.29 C505.38,880.27 511.85,882.18 513.50,882.55 C516.30,883.18 526.47,886.19 548.70,892.97 C553.76,894.51 558.14,895.52 558.45,895.22 C558.75,894.92 559.00,895.19 559.00,895.83 C559.00,896.47 558.11,897.00 557.02,897.00 C555.94,897.00 552.06,898.12 548.40,899.50 L 541.76 902.00 L 471.63 901.92 L 401.50 901.85 L 393.00 899.01 ZM 482.53 888.86 L 488.22 877.73 L 484.36 880.81 C476.44,887.14 467.31,887.21 459.50,881.00 C457.42,879.35 454.77,878.01 453.61,878.03 C451.53,878.06 444.09,880.14 412.50,889.48 C395.73,894.44 392.40,895.73 393.49,896.83 C396.04,899.43 402.26,899.85 438.66,899.92 L 476.83 900.00 L 482.53 888.86 ZM 530.36 895.30 C530.93,894.74 497.31,884.00 494.98,884.00 C494.15,884.00 489.00,893.37 489.00,894.89 C489.00,896.13 529.13,896.54 530.36,895.30 ZM 206.71 757.36 C204.67,754.26 203.00,750.97 203.00,750.05 C203.00,749.13 201.95,745.71 200.67,742.44 C199.40,739.17 197.35,732.81 196.14,728.29 C194.92,723.78 193.07,718.14 192.02,715.77 C190.97,713.40 189.86,710.12 189.54,708.48 C189.23,706.84 184.45,691.55 178.91,674.50 C173.37,657.45 168.25,641.25 167.53,638.50 C166.81,635.75 164.83,629.79 163.13,625.25 C161.44,620.71 160.24,617.00 160.47,617.00 C160.70,617.00 160.02,614.45 158.95,611.34 C157.62,607.49 157.00,603.00 157.00,597.26 C157.00,587.84 157.86,587.13 161.47,593.54 C163.63,597.38 183.36,630.56 195.11,650.14 L 200.90 659.77 L 198.95 663.60 C194.13,673.05 197.94,683.97 208.32,690.50 C209.71,691.37 209.99,696.10 210.54,727.25 C210.88,746.91 211.00,763.00 210.80,763.00 C210.59,763.00 208.76,760.46 206.71,757.36 ZM 205.00 712.08 L 205.00 696.16 L 201.64 694.09 C197.70,691.65 193.36,685.74 191.98,680.92 C190.68,676.41 190.73,667.06 192.07,663.23 C193.06,660.39 192.60,659.25 185.61,647.33 C181.47,640.28 176.21,631.22 173.93,627.20 C171.64,623.19 169.57,620.09 169.34,620.33 C169.10,620.56 171.60,629.02 174.88,639.13 C178.16,649.23 183.60,666.28 186.97,677.00 C190.34,687.72 194.80,701.67 196.88,708.00 C198.96,714.33 201.26,721.41 201.99,723.75 C202.72,726.09 203.70,728.00 204.16,728.00 C204.62,728.00 205.00,720.84 205.00,712.08 ZM 163.00 600.04 C163.00,599.14 160.23,596.00 159.43,596.00 C159.19,596.00 159.00,597.59 159.00,599.54 C159.00,602.76 159.18,602.98 161.00,602.00 C162.10,601.41 163.00,600.53 163.00,600.04 ZM 226.10 656.20 C223.44,654.09 221.28,653.39 216.21,653.00 L 209.74 652.50 L 203.23 641.50 C199.66,635.45 195.05,627.80 193.00,624.50 C188.57,617.38 170.81,587.45 169.15,584.31 C168.20,582.51 168.37,581.48 170.14,578.49 C172.99,573.66 173.02,565.89 170.21,560.49 C167.99,556.22 163.49,551.00 162.03,551.00 C161.54,551.00 162.41,547.06 163.96,542.25 C166.53,534.26 168.54,527.75 178.67,494.50 C180.52,488.45 183.59,478.77 185.50,473.00 C187.40,467.23 189.18,461.20 189.44,459.61 C189.70,458.03 191.23,452.63 192.85,447.61 C198.50,430.01 202.73,416.42 205.11,408.26 C207.13,401.27 207.83,400.01 209.62,400.01 C213.26,400.00 220.06,397.14 222.10,394.77 C224.97,391.42 228.00,385.38 228.00,382.99 C228.00,381.52 229.11,380.44 231.75,379.34 C233.81,378.48 238.20,376.54 241.50,375.02 C244.80,373.49 248.62,371.90 250.00,371.49 C251.38,371.07 254.75,369.71 257.50,368.46 C260.25,367.21 267.00,364.30 272.50,361.97 C283.49,357.33 291.37,353.88 297.50,351.03 L 301.50 349.17 L 305.50 352.97 C310.79,357.99 312.50,358.73 318.87,358.76 C322.27,358.77 324.58,359.28 325.15,360.14 C326.40,362.02 352.22,405.03 353.58,407.50 C354.18,408.60 357.44,414.08 360.82,419.68 L 366.97 429.85 L 364.50 434.18 C360.53,441.11 361.69,450.32 367.28,456.30 C370.58,459.83 370.84,457.93 364.33,478.14 C362.45,483.99 360.71,489.84 360.48,491.14 C360.24,492.44 358.66,497.55 356.97,502.50 C355.28,507.45 353.51,513.30 353.03,515.50 C352.56,517.70 351.01,522.80 349.59,526.83 C348.17,530.86 346.79,535.36 346.53,536.83 C346.26,538.30 344.48,544.22 342.57,550.00 C340.66,555.78 336.77,568.15 333.92,577.50 C324.86,607.29 325.77,604.97 323.14,604.99 C321.83,604.99 318.54,606.21 315.81,607.70 C310.16,610.78 306.49,616.11 305.42,622.79 C304.73,627.07 304.71,627.09 295.25,631.54 C290.04,633.99 285.61,636.00 285.42,636.00 C285.22,636.00 282.60,637.12 279.59,638.50 C276.59,639.88 273.50,641.00 272.73,641.00 C271.96,641.00 271.06,641.28 270.72,641.61 C269.54,642.79 231.46,659.05 230.12,658.95 C229.78,658.93 227.97,657.69 226.10,656.20 ZM 261.50 638.90 C276.90,632.26 291.64,625.90 294.27,624.77 C297.83,623.24 299.17,622.06 299.57,620.11 C301.53,610.57 308.54,602.42 316.95,599.90 C320.00,598.98 320.77,598.15 321.82,594.66 C322.51,592.37 325.12,583.97 327.61,576.00 C330.11,568.03 332.74,559.47 333.47,557.00 C334.20,554.53 336.35,547.55 338.26,541.50 C346.69,514.82 356.77,481.00 356.31,481.00 C354.81,481.00 303.68,510.72 283.15,523.54 C250.38,543.98 206.94,574.49 187.33,590.82 L 183.15 594.29 L 186.93 600.40 C189.01,603.75 195.33,614.38 200.98,624.00 C206.62,633.62 211.83,642.45 212.55,643.60 C213.48,645.11 215.27,645.87 218.87,646.30 C221.63,646.62 225.60,647.80 227.69,648.90 C229.79,650.01 231.95,650.93 232.50,650.95 C233.05,650.97 246.10,645.55 261.50,638.90 ZM 184.39 582.69 C228.41,547.40 287.75,509.07 357.25,471.02 C366.16,466.14 367.00,465.43 367.00,462.75 C367.00,461.13 366.11,458.56 365.02,457.03 C363.94,455.51 362.60,453.08 362.05,451.63 C361.50,450.18 360.52,449.00 359.88,449.00 C356.61,449.00 289.70,486.51 257.00,506.67 C225.46,526.12 180.94,555.85 175.57,561.05 C174.04,562.53 173.69,564.08 173.88,568.38 C174.04,571.83 173.56,574.95 172.57,576.87 C171.71,578.54 171.00,580.79 171.00,581.87 C171.00,583.69 174.01,589.98 174.89,589.99 C175.10,590.00 179.37,586.71 184.39,582.69 ZM 182.65 546.26 C190.67,540.56 218.16,522.12 232.50,512.83 C240.86,507.41 260.56,495.45 289.00,478.54 C296.45,474.10 320.05,461.04 339.45,450.62 L 355.39 442.05 L 356.65 437.28 C357.34,434.65 357.93,431.50 357.96,430.28 C357.98,429.06 352.98,419.61 346.85,409.28 C340.72,398.95 333.60,386.90 331.03,382.50 C321.54,366.24 321.64,366.36 316.58,365.67 C311.59,364.98 305.13,362.07 303.06,359.57 C302.34,358.71 301.17,358.00 300.46,358.00 C299.43,358.00 260.51,374.34 239.33,383.66 C235.91,385.17 234.79,386.39 233.08,390.50 C230.31,397.14 225.13,402.42 219.27,404.57 C216.65,405.53 213.99,406.81 213.36,407.41 C212.73,408.01 210.35,414.58 208.07,422.00 C205.79,429.42 202.12,441.35 199.90,448.50 C197.68,455.65 195.48,462.85 195.01,464.50 C193.05,471.33 187.59,489.18 179.05,516.65 C174.07,532.68 170.00,546.37 170.00,547.07 C170.00,548.97 173.20,552.14 174.58,551.61 C175.25,551.35 178.88,548.95 182.65,546.26 ZM 398.00 435.73 C398.00,433.49 391.94,427.01 387.94,424.97 C385.82,423.89 382.34,423.00 380.21,423.00 C376.50,423.00 376.17,422.72 371.81,415.75 C369.32,411.76 362.66,400.62 357.02,391.00 C351.38,381.38 345.68,371.79 344.34,369.71 C343.01,367.63 340.00,362.67 337.65,358.71 L 333.39 351.50 L 335.33 348.17 C338.11,343.42 338.05,335.45 335.21,330.64 C334.00,328.58 333.00,326.44 333.00,325.89 C333.00,325.34 339.19,316.59 346.75,306.43 C354.31,296.28 363.10,284.38 366.28,279.98 L 372.06 271.99 L 377.40 272.62 C380.61,272.99 384.18,272.76 386.38,272.04 C391.02,270.51 396.69,264.60 398.17,259.75 L 399.32 256.00 L 471.47 256.00 L 543.63 256.00 L 545.94 261.57 C549.13,269.26 554.01,272.50 562.42,272.50 C565.77,272.50 569.13,272.27 569.91,272.00 C570.82,271.67 573.46,274.56 577.41,280.21 C580.76,284.99 588.71,295.79 595.08,304.21 C601.44,312.62 607.48,320.92 608.49,322.65 C610.26,325.70 610.26,325.94 608.51,329.61 C605.77,335.40 605.45,341.28 607.58,346.76 C608.59,349.37 609.31,352.05 609.17,352.73 C609.03,353.41 603.19,363.53 596.18,375.23 C589.17,386.93 579.91,402.41 575.60,409.64 L 567.76 422.78 L 562.02 423.19 C557.37,423.53 555.48,424.25 552.01,426.99 C549.66,428.85 547.12,431.86 546.36,433.69 L 544.97 437.00 L 471.49 437.00 C412.68,437.00 398.00,436.75 398.00,435.73 ZM 448.18 425.84 C460.46,420.25 478.15,412.38 487.50,408.36 C498.92,403.46 504.46,400.58 504.37,399.59 C504.18,397.37 497.04,385.00 495.95,385.00 C493.59,385.00 428.14,414.41 407.73,424.64 C397.99,429.52 397.05,430.23 397.99,431.98 C399.79,435.34 402.20,435.94 414.18,435.97 L 425.86 436.00 L 448.18 425.84 ZM 546.89 430.03 C552.79,423.75 555.97,422.00 561.47,422.00 C564.01,422.00 565.45,421.23 567.51,418.75 C570.72,414.91 593.00,377.37 593.00,375.81 C593.00,375.22 578.51,348.25 560.80,315.87 L 528.60 257.00 L 478.77 257.00 L 428.93 257.00 L 430.11 259.25 C436.78,271.96 461.10,316.41 476.76,344.50 C493.63,374.75 501.65,389.32 523.18,428.75 L 527.14 436.00 L 534.21 436.00 L 541.28 436.00 L 546.89 430.03 ZM 514.33 430.34 C514.99,429.67 506.70,413.46 504.62,411.37 C503.79,410.53 500.02,411.75 490.00,416.09 C466.66,426.20 460.00,429.33 460.00,430.18 C460.00,431.15 513.36,431.31 514.33,430.34 ZM 433.38 404.06 C443.90,399.23 460.49,391.78 470.26,387.50 C482.43,382.17 487.74,379.37 487.14,378.61 C485.19,376.13 449.03,310.72 429.87,275.00 L 423.16 262.50 L 414.12 262.21 L 405.08 261.93 L 403.12 265.76 C399.80,272.28 393.09,277.63 386.55,278.99 C383.41,279.64 379.76,279.91 378.45,279.58 C375.84,278.92 375.22,279.67 352.00,311.20 L 341.18 325.89 L 343.15 332.20 C345.04,338.22 345.05,338.80 343.49,345.27 L 341.86 352.05 L 355.05 374.27 C362.31,386.50 369.32,398.18 370.63,400.23 C371.93,402.28 373.02,404.30 373.05,404.73 C373.08,405.15 374.78,407.96 376.82,410.97 C380.09,415.81 381.04,416.54 384.90,417.20 C387.30,417.61 390.89,418.79 392.88,419.84 L 396.50 421.73 L 405.38 417.29 C410.26,414.85 422.86,408.90 433.38,404.06 ZM 597.25 365.79 C600.39,364.61 607.00,354.81 607.00,351.33 C607.00,348.09 604.91,344.00 603.26,344.00 C601.34,344.00 584.72,349.90 583.65,350.96 C582.29,352.31 591.16,367.85 592.98,367.29 C593.81,367.03 595.74,366.35 597.25,365.79 ZM 593.10 339.11 C599.25,337.09 599.78,336.67 600.85,333.10 C602.68,327.00 602.21,324.86 597.72,318.81 C595.40,315.68 587.91,305.56 581.07,296.31 L 568.64 279.50 L 562.57 279.40 C559.23,279.35 554.74,278.55 552.60,277.64 C550.45,276.72 548.59,276.09 548.47,276.24 C548.34,276.38 551.49,282.35 555.46,289.50 C559.43,296.65 567.55,311.41 573.50,322.30 C579.44,333.19 584.80,341.92 585.40,341.69 C586.01,341.47 589.47,340.31 593.10,339.11 ZM 224.37 367.52 C222.95,363.83 227.95,358.92 248.05,344.25 C266.46,330.81 279.90,321.06 283.39,318.62 C285.65,317.03 287.73,315.42 288.00,315.04 C288.27,314.66 291.20,312.48 294.50,310.20 C297.80,307.92 303.20,304.03 306.50,301.56 C309.80,299.09 314.98,295.42 318.00,293.40 C321.02,291.38 323.77,289.32 324.09,288.82 C324.42,288.31 327.40,286.01 330.72,283.70 C334.05,281.39 340.08,277.20 344.14,274.38 C351.10,269.55 361.59,264.25 362.46,265.12 C362.84,265.50 359.32,270.38 334.04,304.52 L 322.58 320.00 L 317.98 320.00 C309.65,320.00 303.84,325.11 300.59,335.31 C300.01,337.13 294.11,340.12 277.50,346.98 C264.51,352.35 247.98,359.47 236.66,364.57 C225.71,369.50 225.18,369.62 224.37,367.52 ZM 283.30 337.30 C294.05,332.69 294.11,332.65 296.62,327.33 C300.07,320.05 307.34,314.77 315.78,313.42 C319.51,312.82 320.37,311.96 328.88,300.39 C333.89,293.58 337.76,288.00 337.46,288.00 C337.17,288.00 331.59,291.94 325.06,296.75 C318.53,301.56 309.21,308.38 304.34,311.91 C299.48,315.43 293.25,319.97 290.50,322.00 C287.75,324.03 278.52,330.75 270.00,336.94 C261.48,343.13 254.36,348.58 254.18,349.05 C254.01,349.52 258.06,348.11 263.18,345.91 C268.31,343.71 277.36,339.84 283.30,337.30 ZM 783.00 534.31 C778.93,532.85 777.53,525.64 780.75,522.73 C784.11,519.70 787.66,519.57 790.45,522.36 C793.67,525.58 793.71,529.38 790.55,532.55 C788.16,534.93 786.09,535.41 783.00,534.31 Z" fill="rgb(0,0,0)"/>
</g>
</svg>